# xmcd
# 
# Track frame offsets:
#     150
#     15605
#     37395
#     50358
#     78115
#     96108
#     107243
#     139758
#     151540
#     176863
#     194073
# 
# Disc length: 2903
# 
# Revision: 4
# Processed by: cddbd v1.5.2PL0 Copyright (c) Steve Scherf et al.
# Submitted via: fre:ac v1.0.17
# 
DISCID=8f0b550b
DTITLE=和泉 宏隆 - Forgotten Saga
DYEAR=1997
DGENRE=Fusion
TTITLE0=Songs Inside
TTITLE1=Earth Song
TTITLE2=Dream Dust
TTITLE3=Distant Thunder
TTITLE4=Saga
TTITLE5=The Winter of 97
TTITLE6=Alone
TTITLE7=Somewhere in Asia
TTITLE8=Mirage in the Valley
TTITLE9=Elegy for Silence
TTITLE10=Soul Mate
EXTD=
EXTT0=
EXTT1=
EXTT2=
EXTT3=
EXTT4=
EXTT5=
EXTT6=
EXTT7=
EXTT8=
EXTT9=
EXTT10=
PLAYORDER=
